<svg width="30" height="23" viewBox="0 0 30 23" fill="none" xmlns="http://www.w3.org/2000/svg">
<path d="M18 3V0H30V3H18ZM18 9V6H30V9H18ZM18 15V12H30V15H18ZM9 13.5C7.75 13.5 6.6875 13.0625 5.8125 12.1875C4.9375 11.3125 4.5 10.25 4.5 9C4.5 7.75 4.9375 6.6875 5.8125 5.8125C6.6875 4.9375 7.75 4.5 9 4.5C10.25 4.5 11.3125 4.9375 12.1875 5.8125C13.0625 6.6875 13.5 7.75 13.5 9C13.5 10.25 13.0625 11.3125 12.1875 12.1875C11.3125 13.0625 10.25 13.5 9 13.5ZM0 22.5V19.65C0 19.125 0.125 18.625 0.375 18.15C0.625 17.675 0.975 17.3 1.425 17.025C2.55 16.35 3.74375 15.8438 5.00625 15.5063C6.26875 15.1688 7.6 15 9 15C10.4 15 11.7313 15.1688 12.9938 15.5063C14.2563 15.8438 15.45 16.35 16.575 17.025C17.025 17.3 17.375 17.675 17.625 18.15C17.875 18.625 18 19.125 18 19.65V22.5H0ZM3.225 19.5H14.775C13.9 19 12.975 18.625 12 18.375C11.025 18.125 10.025 18 9 18C7.975 18 6.975 18.125 6 18.375C5.025 18.625 4.1 19 3.225 19.5ZM9 10.5C9.425 10.5 9.78125 10.3563 10.0688 10.0688C10.3563 9.78125 10.5 9.425 10.5 9C10.5 8.575 10.3563 8.21875 10.0688 7.93125C9.78125 7.64375 9.425 7.5 9 7.5C8.575 7.5 8.21875 7.64375 7.93125 7.93125C7.64375 8.21875 7.5 8.575 7.5 9C7.5 9.425 7.64375 9.78125 7.93125 10.0688C8.21875 10.3563 8.575 10.5 9 10.5Z" fill="#13274D"/>
</svg>
