<svg width="96" height="21" viewBox="0 0 96 21" fill="none" xmlns="http://www.w3.org/2000/svg">
<path d="M-2.2199e-05 19.9986L3.13918 1.08949H15.8807L15.3267 4.38565H6.58307L5.84444 8.89134H13.9325L13.3785 12.1875H5.29046L4.55182 16.7024H13.3324L12.7784 19.9986H-2.2199e-05ZM19.8531 20.2663C18.9545 20.2663 18.1758 20.1094 17.5172 19.7955C16.8647 19.4754 16.3846 19.0014 16.0769 18.3736C15.7691 17.7457 15.6922 16.9671 15.846 16.0376C15.9815 15.2498 16.2369 14.5911 16.6124 14.0618C16.994 13.5263 17.4587 13.0954 18.0065 12.7692C18.5544 12.4429 19.1607 12.1937 19.8254 12.0213C20.4964 11.849 21.1888 11.732 21.9029 11.6705C22.7277 11.5843 23.3986 11.5012 23.9156 11.4212C24.4388 11.3411 24.8297 11.2273 25.0882 11.0795C25.3467 10.9257 25.5037 10.6979 25.5591 10.3963V10.3409C25.6514 9.76231 25.5437 9.31297 25.236 8.9929C24.9343 8.66667 24.4511 8.50355 23.7864 8.50355C23.0847 8.50355 22.4876 8.65743 21.9952 8.9652C21.5089 9.27297 21.1611 9.66383 20.9519 10.1378L17.3695 9.84233C17.6895 8.98059 18.1727 8.2358 18.819 7.60796C19.4715 6.97396 20.2563 6.48769 21.1735 6.14915C22.0906 5.80445 23.1185 5.6321 24.2573 5.6321C25.0451 5.6321 25.7807 5.72443 26.4639 5.90909C27.1533 6.09375 27.7473 6.37997 28.2459 6.76776C28.7506 7.15554 29.1138 7.65412 29.3354 8.2635C29.5631 8.86672 29.6093 9.58996 29.4739 10.4332L27.8766 19.9986H24.1465L24.4788 18.032H24.3681C24.0664 18.4751 23.6971 18.866 23.2601 19.2045C22.8231 19.5369 22.3214 19.7985 21.7551 19.9893C21.1888 20.174 20.5548 20.2663 19.8531 20.2663ZM21.432 17.5518C22.0044 17.5518 22.5307 17.438 23.0108 17.2102C23.4971 16.9763 23.8972 16.6624 24.2111 16.2685C24.5312 15.8745 24.7343 15.4283 24.8205 14.9297L25.0605 13.4247C24.9374 13.5047 24.7589 13.5755 24.525 13.6371C24.2973 13.6986 24.048 13.7571 23.7771 13.8125C23.5125 13.8617 23.2447 13.9079 22.9739 13.951C22.703 13.9879 22.4599 14.0249 22.2445 14.0618C21.7705 14.1295 21.3458 14.2372 20.9703 14.3849C20.5949 14.5327 20.2902 14.7327 20.0563 14.9851C19.8224 15.2313 19.6777 15.5391 19.6223 15.9084C19.5361 16.4439 19.6623 16.8532 20.0009 17.1364C20.3456 17.4134 20.8226 17.5518 21.432 17.5518ZM30.9281 19.9986L33.2917 5.81676H37.1049L36.6894 8.29119H36.8372C37.2434 7.41099 37.7882 6.74621 38.4714 6.29688C39.1608 5.84138 39.9025 5.61364 40.6965 5.61364C40.8935 5.61364 41.0997 5.62595 41.3151 5.65057C41.5367 5.66904 41.7337 5.69981 41.9061 5.7429L41.3151 9.24219C41.1428 9.18064 40.8966 9.13139 40.5765 9.09446C40.2626 9.05137 39.9641 9.02983 39.6809 9.02983C39.1085 9.02983 38.576 9.15601 38.0836 9.40838C37.5912 9.65459 37.1757 9.99929 36.8372 10.4425C36.5048 10.8857 36.2863 11.3965 36.1816 11.9751L34.8613 19.9986H30.9281ZM46.8849 11.7997L45.5184 19.9986H41.5944L43.9581 5.81676H47.6974L47.2912 8.31889H47.4481C47.8975 7.48793 48.5315 6.83239 49.3501 6.35227C50.1749 5.87216 51.1136 5.6321 52.1662 5.6321C53.151 5.6321 53.9728 5.84754 54.6314 6.27841C55.2961 6.70928 55.7639 7.32173 56.0348 8.11577C56.3118 8.9098 56.3579 9.8608 56.1733 10.9688L54.6591 19.9986H50.7258L52.12 11.6705C52.2616 10.8026 52.1508 10.1255 51.7876 9.63921C51.4306 9.14678 50.8551 8.90057 50.0611 8.90057C49.5317 8.90057 49.0454 9.01444 48.6023 9.24219C48.1591 9.46993 47.7867 9.80232 47.4851 10.2393C47.1896 10.6702 46.9896 11.1903 46.8849 11.7997ZM63.0587 11.7997L61.6923 19.9986H57.7683L60.1319 5.81676H63.8712L63.465 8.31889H63.622C64.0713 7.48793 64.7053 6.83239 65.5239 6.35227C66.3488 5.87216 67.2874 5.6321 68.34 5.6321C69.3248 5.6321 70.1466 5.84754 70.8052 6.27841C71.47 6.70928 71.9378 7.32173 72.2086 8.11577C72.4856 8.9098 72.5318 9.8608 72.3471 10.9688L70.8329 19.9986H66.8997L68.2938 11.6705C68.4354 10.8026 68.3246 10.1255 67.9614 9.63921C67.6044 9.14678 67.0289 8.90057 66.2349 8.90057C65.7055 8.90057 65.2193 9.01444 64.7761 9.24219C64.3329 9.46993 63.9605 9.80232 63.6589 10.2393C63.3634 10.6702 63.1634 11.1903 63.0587 11.7997ZM73.9144 19.9986L76.278 5.81676H80.2113L77.8476 19.9986H73.9144ZM78.6509 3.97017C78.0661 3.97017 77.583 3.77628 77.2013 3.3885C76.8259 2.99456 76.672 2.52675 76.7397 1.98509C76.8074 1.43111 77.0721 0.963306 77.5337 0.581677C77.9954 0.193892 78.5186 1.19209e-07 79.1033 1.19209e-07C79.6881 1.19209e-07 80.1651 0.193892 80.5344 0.581677C80.9037 0.963306 81.0576 1.43111 80.9961 1.98509C80.9345 2.52675 80.6729 2.99456 80.2113 3.3885C79.7558 3.77628 79.2357 3.97017 78.6509 3.97017ZM87.4245 20.2756C85.9719 20.2756 84.7685 19.9801 83.8144 19.3892C82.8604 18.7921 82.1894 17.9489 81.8016 16.8594C81.42 15.7637 81.3554 14.468 81.6078 12.9723C81.854 11.5135 82.3495 10.2332 83.0943 9.13139C83.8452 8.02959 84.787 7.17093 85.9195 6.5554C87.0521 5.93987 88.314 5.6321 89.7051 5.6321C90.6407 5.6321 91.487 5.78291 92.2441 6.08452C93.0074 6.37997 93.6414 6.82931 94.1461 7.43253C94.6508 8.02959 94.9955 8.77746 95.1802 9.67614C95.371 10.5748 95.3679 11.6274 95.171 12.8338L94.9955 13.9141H83.0296L83.4082 11.4766H91.6809C91.7732 10.9103 91.7363 10.4086 91.5701 9.97159C91.4039 9.53457 91.1269 9.19295 90.7391 8.94673C90.3514 8.69437 89.8743 8.56818 89.308 8.56818C88.7294 8.56818 88.1878 8.70975 87.683 8.9929C87.1783 9.27604 86.7536 9.64844 86.4089 10.1101C86.0703 10.5656 85.8518 11.0611 85.7534 11.5966L85.3194 14.0156C85.1963 14.7604 85.2209 15.379 85.3933 15.8715C85.5718 16.3639 85.8795 16.7332 86.3166 16.9794C86.7536 17.2195 87.3076 17.3395 87.9785 17.3395C88.4155 17.3395 88.8248 17.2779 89.2065 17.1548C89.5943 17.0317 89.939 16.8501 90.2406 16.6101C90.5422 16.3639 90.7884 16.0592 90.9792 15.696L94.5708 15.9361C94.2384 16.8101 93.7337 17.5734 93.0566 18.2259C92.3795 18.8722 91.564 19.3769 90.6099 19.7401C89.662 20.0971 88.6002 20.2756 87.4245 20.2756Z" fill="black"/>
</svg>
