<svg width="30" height="20" viewBox="0 0 30 20" fill="none" xmlns="http://www.w3.org/2000/svg">
<path d="M4.09091 20C2.95455 20 1.98864 19.5139 1.19318 18.5417C0.397727 17.5694 0 16.3889 0 15V5C0 3.61111 0.397727 2.43056 1.19318 1.45833C1.98864 0.486111 2.95455 0 4.09091 0H22.5C23.6364 0 24.6023 0.486111 25.3977 1.45833C26.1932 2.43056 26.5909 3.61111 26.5909 5V15C26.5909 16.3889 26.1932 17.5694 25.3977 18.5417C24.6023 19.5139 23.6364 20 22.5 20H4.09091ZM4.09091 16.6667H22.5C22.8864 16.6667 23.2102 16.5069 23.4716 16.1875C23.733 15.8681 23.8636 15.4722 23.8636 15V5C23.8636 4.52778 23.733 4.13194 23.4716 3.8125C23.2102 3.49306 22.8864 3.33333 22.5 3.33333H4.09091C3.70455 3.33333 3.38068 3.49306 3.11932 3.8125C2.85795 4.13194 2.72727 4.52778 2.72727 5V15C2.72727 15.4722 2.85795 15.8681 3.11932 16.1875C3.38068 16.5069 3.70455 16.6667 4.09091 16.6667ZM27.9545 14.1667V5.83333H28.6364C29.0227 5.83333 29.3466 5.99306 29.608 6.3125C29.8693 6.63194 30 7.02778 30 7.5V12.5C30 12.9722 29.8693 13.3681 29.608 13.6875C29.3466 14.0069 29.0227 14.1667 28.6364 14.1667H27.9545Z" fill="white"/>
</svg>
