<svg width="24" height="24" viewBox="0 0 24 24" fill="none" xmlns="http://www.w3.org/2000/svg">
<path d="M8 16V8H16V16H8ZM10.6667 13.3333H13.3333V10.6667H10.6667V13.3333ZM8 24V21.3333H5.33333C4.6 21.3333 3.97222 21.0722 3.45 20.55C2.92778 20.0278 2.66667 19.4 2.66667 18.6667V16H0V13.3333H2.66667V10.6667H0V8H2.66667V5.33333C2.66667 4.6 2.92778 3.97222 3.45 3.45C3.97222 2.92778 4.6 2.66667 5.33333 2.66667H8V0H10.6667V2.66667H13.3333V0H16V2.66667H18.6667C19.4 2.66667 20.0278 2.92778 20.55 3.45C21.0722 3.97222 21.3333 4.6 21.3333 5.33333V8H24V10.6667H21.3333V13.3333H24V16H21.3333V18.6667C21.3333 19.4 21.0722 20.0278 20.55 20.55C20.0278 21.0722 19.4 21.3333 18.6667 21.3333H16V24H13.3333V21.3333H10.6667V24H8ZM18.6667 18.6667V5.33333H5.33333V18.6667H18.6667Z" fill="white"/>
</svg>
