<svg width="29" height="20" viewBox="0 0 29 20" fill="none" xmlns="http://www.w3.org/2000/svg">
<path d="M2.70285 8.40625L0 5.75C1.95029 3.89583 4.17617 2.47396 6.67763 1.48438C9.17909 0.494792 11.7866 0 14.5 0C17.2135 0 19.8209 0.494792 22.3224 1.48438C24.8238 2.47396 27.0497 3.89583 29 5.75L26.2972 8.40625C24.7072 6.90625 22.8947 5.75521 20.8597 4.95312C18.8246 4.15104 16.7047 3.75 14.5 3.75C12.2953 3.75 10.1754 4.15104 8.14035 4.95312C6.10526 5.75521 4.29276 6.90625 2.70285 8.40625ZM8.07675 13.6875L5.4057 11.0625C6.65643 9.91667 8.06086 9.03646 9.61897 8.42188C11.1771 7.80729 12.8041 7.5 14.5 7.5C16.1959 7.5 17.8229 7.80729 19.381 8.42188C20.9391 9.03646 22.3436 9.91667 23.5943 11.0625L20.9232 13.6875C20.0329 12.8958 19.0419 12.2917 17.9501 11.875C16.8584 11.4583 15.7083 11.25 14.5 11.25C13.2917 11.25 12.1416 11.4583 11.0499 11.875C9.95815 12.2917 8.96711 12.8958 8.07675 13.6875ZM12.7034 19.2656C12.2052 18.776 11.9561 18.1875 11.9561 17.5C11.9561 16.8125 12.2052 16.224 12.7034 15.7344C13.2016 15.2448 13.8004 15 14.5 15C15.1996 15 15.7984 15.2448 16.2966 15.7344C16.7948 16.224 17.0439 16.8125 17.0439 17.5C17.0439 18.1875 16.7948 18.776 16.2966 19.2656C15.7984 19.7552 15.1996 20 14.5 20C13.8004 20 13.2016 19.7552 12.7034 19.2656Z" fill="white"/>
</svg>
