<svg width="24" height="24" viewBox="0 0 24 24" fill="none" xmlns="http://www.w3.org/2000/svg">
<path d="M7.32 23.055C5.86 22.425 4.59 21.57 3.51 20.49C2.43 19.41 1.575 18.14 0.945 16.68C0.315 15.22 0 13.66 0 12C0 10.34 0.315 8.78 0.945 7.32C1.575 5.86 2.43 4.59 3.51 3.51C4.59 2.43 5.86 1.575 7.32 0.945C8.78 0.315 10.34 0 12 0C13.66 0 15.22 0.315 16.68 0.945C18.14 1.575 19.41 2.43 20.49 3.51C21.57 4.59 22.425 5.86 23.055 7.32C23.685 8.78 24 10.34 24 12C24 13.66 23.685 15.22 23.055 16.68C22.425 18.14 21.57 19.41 20.49 20.49C19.41 21.57 18.14 22.425 16.68 23.055C15.22 23.685 13.66 24 12 24C10.34 24 8.78 23.685 7.32 23.055ZM12 21.6C13.12 21.6 14.175 21.425 15.165 21.075C16.155 20.725 17.06 20.23 17.88 19.59L16.17 17.88C15.59 18.3 14.945 18.625 14.235 18.855C13.525 19.085 12.78 19.2 12 19.2C10 19.2 8.3 18.5 6.9 17.1C5.5 15.7 4.8 14 4.8 12C4.8 10 5.5 8.3 6.9 6.9C8.3 5.5 10 4.8 12 4.8C14 4.8 15.7 5.5 17.1 6.9C18.5 8.3 19.2 10 19.2 12C19.2 12.78 19.08 13.53 18.84 14.25C18.6 14.97 18.27 15.62 17.85 16.2L19.56 17.91C20.2 17.09 20.7 16.18 21.06 15.18C21.42 14.18 21.6 13.12 21.6 12C21.6 9.32 20.67 7.05 18.81 5.19C16.95 3.33 14.68 2.4 12 2.4C9.32 2.4 7.05 3.33 5.19 5.19C3.33 7.05 2.4 9.32 2.4 12C2.4 14.68 3.33 16.95 5.19 18.81C7.05 20.67 9.32 21.6 12 21.6ZM12 16.8C12.44 16.8 12.865 16.745 13.275 16.635C13.685 16.525 14.07 16.36 14.43 16.14L12.6 14.31C12.5 14.35 12.4 14.375 12.3 14.385C12.2 14.395 12.1 14.4 12 14.4C11.34 14.4 10.775 14.165 10.305 13.695C9.835 13.225 9.6 12.66 9.6 12C9.6 11.34 9.835 10.775 10.305 10.305C10.775 9.835 11.34 9.6 12 9.6C12.66 9.6 13.225 9.835 13.695 10.305C14.165 10.775 14.4 11.34 14.4 12C14.4 12.12 14.395 12.235 14.385 12.345C14.375 12.455 14.35 12.56 14.31 12.66L16.11 14.46C16.33 14.1 16.5 13.715 16.62 13.305C16.74 12.895 16.8 12.46 16.8 12C16.8 10.68 16.33 9.55 15.39 8.61C14.45 7.67 13.32 7.2 12 7.2C10.68 7.2 9.55 7.67 8.61 8.61C7.67 9.55 7.2 10.68 7.2 12C7.2 13.32 7.67 14.45 8.61 15.39C9.55 16.33 10.68 16.8 12 16.8Z" fill="white"/>
</svg>
